<svg xmlns="http://www.w3.org/2000/svg" xmlns:xlink="http://www.w3.org/1999/xlink" width="1080" zoomAndPan="magnify" viewBox="0 0 810 809.999993" height="1080" preserveAspectRatio="xMidYMid meet" version="1.0"><defs><clipPath id="c1f31f83fb"><path d="M 244.613281 162.507812 L 724 162.507812 L 724 647.460938 L 244.613281 647.460938 Z M 244.613281 162.507812 " clip-rule="nonzero"/></clipPath><clipPath id="331a08071e"><path d="M 86.464844 512 L 188 512 L 188 646.996094 L 86.464844 646.996094 Z M 86.464844 512 " clip-rule="nonzero"/></clipPath><clipPath id="20b61ac3e6"><path d="M 204 411 L 306 411 L 306 646.996094 L 204 646.996094 Z M 204 411 " clip-rule="nonzero"/></clipPath><clipPath id="b18b700423"><path d="M 321 311.066406 L 422.394531 311.066406 L 422.394531 646.996094 L 321 646.996094 Z M 321 311.066406 " clip-rule="nonzero"/></clipPath></defs><g clip-path="url(#c1f31f83fb)"><path fill="#4d72de" d="M 575.109375 497.230469 L 722.617188 644.699219 C 722.835938 644.921875 722.972656 645.183594 723.03125 645.488281 C 723.09375 645.796875 723.0625 646.09375 722.945312 646.378906 C 722.824219 646.667969 722.636719 646.898438 722.378906 647.074219 C 722.125 647.25 721.839844 647.339844 721.527344 647.34375 C 645.691406 645.941406 578.441406 622.726562 519.769531 577.691406 C 504.5 566 485.222656 548.304688 461.941406 524.609375 C 427.976562 490.074219 393.144531 455.175781 357.445312 419.917969 C 354.800781 417.273438 355.34375 415.9375 359.078125 415.910156 C 396.957031 415.601562 436.066406 415.652344 476.40625 416.066406 C 496.164062 416.273438 511.5 414.148438 522.414062 409.6875 C 586.503906 383.59375 588.019531 296.753906 524.589844 268.09375 C 515.492188 263.96875 502.734375 261.921875 486.324219 261.949219 C 442.949219 262.027344 398.394531 262.207031 352.660156 262.492188 C 336.171875 262.597656 322.261719 260.652344 310.933594 256.660156 C 271.539062 242.777344 246.027344 207.113281 244.625 165.113281 C 244.621094 164.839844 244.667969 164.578125 244.765625 164.328125 C 244.863281 164.074219 245.007812 163.851562 245.191406 163.65625 C 245.378906 163.464844 245.59375 163.316406 245.839844 163.210938 C 246.085938 163.105469 246.34375 163.050781 246.609375 163.050781 C 327.316406 163.519531 402.039062 163.46875 470.769531 162.898438 C 501.152344 162.636719 524.203125 164.632812 539.914062 168.886719 C 633.832031 194.203125 691.503906 292.941406 663.503906 386.898438 C 649.402344 434.265625 620.039062 470.242188 575.417969 494.820312 C 575.210938 494.9375 575.039062 495.09375 574.90625 495.292969 C 574.773438 495.492188 574.691406 495.707031 574.660156 495.945312 C 574.628906 496.183594 574.652344 496.414062 574.734375 496.640625 C 574.8125 496.867188 574.9375 497.0625 575.109375 497.230469 Z M 575.109375 497.230469 " fill-opacity="1" fill-rule="nonzero"/></g><g clip-path="url(#331a08071e)"><path fill="#4d72de" d="M 103.285156 512.910156 L 170.566406 512.910156 C 171.117188 512.910156 171.667969 512.933594 172.214844 512.988281 C 172.765625 513.042969 173.308594 513.125 173.847656 513.230469 C 174.390625 513.339844 174.921875 513.472656 175.449219 513.632812 C 175.976562 513.792969 176.496094 513.976562 177.003906 514.1875 C 177.511719 514.398438 178.011719 514.636719 178.496094 514.894531 C 178.980469 515.152344 179.453125 515.4375 179.910156 515.742188 C 180.371094 516.050781 180.8125 516.375 181.238281 516.726562 C 181.664062 517.074219 182.070312 517.445312 182.460938 517.835938 C 182.851562 518.222656 183.21875 518.632812 183.570312 519.058594 C 183.917969 519.484375 184.246094 519.925781 184.550781 520.382812 C 184.859375 520.839844 185.140625 521.3125 185.402344 521.800781 C 185.660156 522.285156 185.894531 522.78125 186.105469 523.292969 C 186.316406 523.800781 186.503906 524.320312 186.664062 524.847656 C 186.824219 525.375 186.957031 525.90625 187.0625 526.445312 C 187.171875 526.988281 187.253906 527.53125 187.304688 528.078125 C 187.359375 528.628906 187.386719 529.175781 187.386719 529.730469 L 187.386719 630.648438 C 187.386719 631.199219 187.359375 631.75 187.304688 632.296875 C 187.253906 632.847656 187.171875 633.390625 187.0625 633.929688 C 186.957031 634.472656 186.824219 635.003906 186.664062 635.53125 C 186.503906 636.058594 186.316406 636.578125 186.105469 637.085938 C 185.894531 637.59375 185.660156 638.09375 185.402344 638.578125 C 185.140625 639.066406 184.859375 639.535156 184.550781 639.996094 C 184.246094 640.453125 183.917969 640.894531 183.570312 641.320312 C 183.21875 641.746094 182.851562 642.152344 182.460938 642.542969 C 182.070312 642.933594 181.664062 643.300781 181.238281 643.652344 C 180.8125 644 180.371094 644.328125 179.910156 644.636719 C 179.453125 644.941406 178.980469 645.222656 178.496094 645.484375 C 178.011719 645.742188 177.511719 645.980469 177.003906 646.191406 C 176.496094 646.398438 175.976562 646.585938 175.449219 646.746094 C 174.921875 646.90625 174.390625 647.039062 173.847656 647.148438 C 173.308594 647.253906 172.765625 647.335938 172.214844 647.390625 C 171.667969 647.441406 171.117188 647.46875 170.566406 647.46875 L 103.285156 647.46875 C 102.734375 647.46875 102.1875 647.441406 101.636719 647.390625 C 101.089844 647.335938 100.546875 647.253906 100.003906 647.148438 C 99.464844 647.039062 98.929688 646.90625 98.402344 646.746094 C 97.875 646.585938 97.359375 646.398438 96.847656 646.191406 C 96.339844 645.980469 95.84375 645.742188 95.355469 645.484375 C 94.871094 645.222656 94.398438 644.941406 93.941406 644.636719 C 93.484375 644.328125 93.042969 644 92.617188 643.652344 C 92.191406 643.300781 91.78125 642.933594 91.390625 642.542969 C 91.003906 642.152344 90.632812 641.746094 90.285156 641.320312 C 89.933594 640.894531 89.605469 640.453125 89.300781 639.996094 C 88.996094 639.535156 88.710938 639.066406 88.453125 638.578125 C 88.191406 638.09375 87.957031 637.59375 87.746094 637.085938 C 87.535156 636.578125 87.351562 636.058594 87.191406 635.53125 C 87.03125 635.003906 86.898438 634.472656 86.789062 633.929688 C 86.683594 633.390625 86.601562 632.847656 86.546875 632.296875 C 86.492188 631.75 86.464844 631.199219 86.464844 630.648438 L 86.464844 529.730469 C 86.464844 529.175781 86.492188 528.628906 86.546875 528.078125 C 86.601562 527.53125 86.683594 526.988281 86.789062 526.445312 C 86.898438 525.90625 87.03125 525.375 87.191406 524.847656 C 87.351562 524.320312 87.535156 523.800781 87.746094 523.292969 C 87.957031 522.78125 88.191406 522.285156 88.453125 521.800781 C 88.710938 521.3125 88.996094 520.839844 89.300781 520.382812 C 89.605469 519.925781 89.933594 519.484375 90.285156 519.058594 C 90.632812 518.632812 91.003906 518.222656 91.390625 517.835938 C 91.78125 517.445312 92.191406 517.074219 92.617188 516.726562 C 93.042969 516.375 93.484375 516.050781 93.941406 515.742188 C 94.398438 515.4375 94.871094 515.152344 95.355469 514.894531 C 95.84375 514.636719 96.339844 514.398438 96.847656 514.1875 C 97.359375 513.976562 97.875 513.792969 98.402344 513.632812 C 98.929688 513.472656 99.464844 513.339844 100.003906 513.230469 C 100.546875 513.125 101.089844 513.042969 101.636719 512.988281 C 102.1875 512.933594 102.734375 512.910156 103.285156 512.910156 Z M 103.285156 512.910156 " fill-opacity="1" fill-rule="nonzero"/></g><g clip-path="url(#20b61ac3e6)"><path fill="#4d72de" d="M 221.027344 411.988281 L 288.308594 411.988281 C 288.859375 411.988281 289.410156 412.015625 289.957031 412.066406 C 290.503906 412.121094 291.050781 412.203125 291.589844 412.308594 C 292.128906 412.417969 292.664062 412.550781 293.191406 412.710938 C 293.71875 412.871094 294.234375 413.058594 294.746094 413.265625 C 295.253906 413.476562 295.75 413.714844 296.238281 413.972656 C 296.722656 414.234375 297.195312 414.515625 297.652344 414.820312 C 298.109375 415.128906 298.554688 415.457031 298.980469 415.804688 C 299.40625 416.15625 299.8125 416.523438 300.203125 416.914062 C 300.589844 417.304688 300.960938 417.710938 301.308594 418.136719 C 301.660156 418.5625 301.988281 419.003906 302.292969 419.460938 C 302.601562 419.921875 302.882812 420.390625 303.140625 420.878906 C 303.402344 421.363281 303.636719 421.863281 303.847656 422.371094 C 304.058594 422.878906 304.246094 423.398438 304.402344 423.925781 C 304.5625 424.453125 304.699219 424.984375 304.804688 425.527344 C 304.914062 426.066406 304.992188 426.609375 305.046875 427.160156 C 305.101562 427.707031 305.128906 428.257812 305.128906 428.808594 L 305.128906 630.648438 C 305.128906 631.199219 305.101562 631.75 305.046875 632.296875 C 304.992188 632.847656 304.914062 633.390625 304.804688 633.929688 C 304.699219 634.472656 304.5625 635.003906 304.402344 635.53125 C 304.246094 636.058594 304.058594 636.578125 303.847656 637.085938 C 303.636719 637.59375 303.402344 638.09375 303.140625 638.578125 C 302.882812 639.066406 302.601562 639.535156 302.292969 639.996094 C 301.988281 640.453125 301.660156 640.894531 301.308594 641.320312 C 300.960938 641.746094 300.589844 642.152344 300.203125 642.542969 C 299.8125 642.933594 299.40625 643.300781 298.980469 643.652344 C 298.554688 644 298.109375 644.328125 297.652344 644.636719 C 297.195312 644.941406 296.722656 645.222656 296.238281 645.484375 C 295.75 645.742188 295.253906 645.980469 294.746094 646.191406 C 294.234375 646.398438 293.71875 646.585938 293.191406 646.746094 C 292.664062 646.90625 292.128906 647.039062 291.589844 647.148438 C 291.050781 647.253906 290.503906 647.335938 289.957031 647.390625 C 289.410156 647.441406 288.859375 647.46875 288.308594 647.46875 L 221.027344 647.46875 C 220.476562 647.46875 219.925781 647.441406 219.378906 647.390625 C 218.832031 647.335938 218.285156 647.253906 217.746094 647.148438 C 217.207031 647.039062 216.671875 646.90625 216.144531 646.746094 C 215.617188 646.585938 215.101562 646.398438 214.589844 646.191406 C 214.082031 645.980469 213.585938 645.742188 213.097656 645.484375 C 212.613281 645.222656 212.140625 644.941406 211.683594 644.636719 C 211.226562 644.328125 210.78125 644 210.355469 643.652344 C 209.929688 643.300781 209.523438 642.933594 209.132812 642.542969 C 208.746094 642.152344 208.375 641.746094 208.023438 641.320312 C 207.675781 640.894531 207.347656 640.453125 207.042969 639.996094 C 206.734375 639.535156 206.453125 639.066406 206.195312 638.578125 C 205.933594 638.09375 205.699219 637.59375 205.488281 637.085938 C 205.277344 636.578125 205.089844 636.058594 204.929688 635.53125 C 204.773438 635.003906 204.636719 634.472656 204.53125 633.929688 C 204.421875 633.390625 204.34375 632.847656 204.289062 632.296875 C 204.234375 631.75 204.207031 631.199219 204.207031 630.648438 L 204.207031 428.808594 C 204.207031 428.257812 204.234375 427.707031 204.289062 427.160156 C 204.34375 426.609375 204.421875 426.066406 204.53125 425.527344 C 204.636719 424.984375 204.773438 424.453125 204.929688 423.925781 C 205.089844 423.398438 205.277344 422.878906 205.488281 422.371094 C 205.699219 421.863281 205.933594 421.363281 206.195312 420.878906 C 206.453125 420.390625 206.734375 419.921875 207.042969 419.460938 C 207.347656 419.003906 207.675781 418.5625 208.023438 418.136719 C 208.375 417.710938 208.746094 417.304688 209.132812 416.914062 C 209.523438 416.523438 209.929688 416.15625 210.355469 415.804688 C 210.78125 415.457031 211.226562 415.128906 211.683594 414.820312 C 212.140625 414.515625 212.613281 414.234375 213.097656 413.972656 C 213.585938 413.714844 214.082031 413.476562 214.589844 413.265625 C 215.101562 413.058594 215.617188 412.871094 216.144531 412.710938 C 216.671875 412.550781 217.207031 412.417969 217.746094 412.308594 C 218.285156 412.203125 218.832031 412.121094 219.378906 412.066406 C 219.925781 412.015625 220.476562 411.988281 221.027344 411.988281 Z M 221.027344 411.988281 " fill-opacity="1" fill-rule="nonzero"/></g><g clip-path="url(#b18b700423)"><path fill="#4d72de" d="M 338.769531 311.066406 L 406.050781 311.066406 C 406.601562 311.066406 407.148438 311.09375 407.699219 311.148438 C 408.246094 311.199219 408.789062 311.28125 409.332031 311.390625 C 409.871094 311.496094 410.40625 311.628906 410.933594 311.789062 C 411.460938 311.949219 411.976562 312.136719 412.488281 312.347656 C 412.996094 312.558594 413.492188 312.792969 413.980469 313.050781 C 414.464844 313.3125 414.9375 313.59375 415.394531 313.902344 C 415.851562 314.207031 416.292969 314.535156 416.71875 314.882812 C 417.144531 315.234375 417.554688 315.601562 417.945312 315.992188 C 418.332031 316.382812 418.703125 316.789062 419.050781 317.214844 C 419.402344 317.640625 419.730469 318.082031 420.035156 318.542969 C 420.339844 319 420.625 319.472656 420.882812 319.957031 C 421.144531 320.441406 421.378906 320.941406 421.589844 321.449219 C 421.800781 321.957031 421.984375 322.476562 422.144531 323.003906 C 422.304688 323.53125 422.4375 324.066406 422.546875 324.605469 C 422.652344 325.144531 422.734375 325.6875 422.789062 326.238281 C 422.84375 326.785156 422.871094 327.335938 422.871094 327.886719 L 422.871094 630.648438 C 422.871094 631.199219 422.84375 631.75 422.789062 632.296875 C 422.734375 632.847656 422.652344 633.390625 422.546875 633.929688 C 422.4375 634.472656 422.304688 635.003906 422.144531 635.53125 C 421.984375 636.058594 421.800781 636.578125 421.589844 637.085938 C 421.378906 637.59375 421.144531 638.09375 420.882812 638.578125 C 420.625 639.066406 420.339844 639.535156 420.035156 639.996094 C 419.730469 640.453125 419.402344 640.894531 419.050781 641.320312 C 418.703125 641.746094 418.332031 642.152344 417.945312 642.542969 C 417.554688 642.933594 417.144531 643.300781 416.71875 643.652344 C 416.292969 644 415.851562 644.328125 415.394531 644.636719 C 414.9375 644.941406 414.464844 645.222656 413.980469 645.484375 C 413.492188 645.742188 412.996094 645.980469 412.488281 646.191406 C 411.976562 646.398438 411.460938 646.585938 410.933594 646.746094 C 410.40625 646.90625 409.871094 647.039062 409.332031 647.148438 C 408.789062 647.253906 408.246094 647.335938 407.699219 647.390625 C 407.148438 647.441406 406.601562 647.46875 406.050781 647.46875 L 338.769531 647.46875 C 338.21875 647.46875 337.667969 647.441406 337.121094 647.390625 C 336.570312 647.335938 336.027344 647.253906 335.488281 647.148438 C 334.945312 647.039062 334.414062 646.90625 333.886719 646.746094 C 333.359375 646.585938 332.839844 646.398438 332.332031 646.191406 C 331.824219 645.980469 331.324219 645.742188 330.839844 645.484375 C 330.355469 645.222656 329.882812 644.941406 329.425781 644.636719 C 328.964844 644.328125 328.523438 644 328.097656 643.652344 C 327.671875 643.300781 327.265625 642.933594 326.875 642.542969 C 326.484375 642.152344 326.117188 641.746094 325.765625 641.320312 C 325.417969 640.894531 325.089844 640.453125 324.785156 639.996094 C 324.476562 639.535156 324.195312 639.066406 323.933594 638.578125 C 323.675781 638.09375 323.441406 637.59375 323.230469 637.085938 C 323.019531 636.578125 322.832031 636.058594 322.671875 635.53125 C 322.511719 635.003906 322.378906 634.472656 322.273438 633.929688 C 322.164062 633.390625 322.082031 632.847656 322.03125 632.296875 C 321.976562 631.75 321.949219 631.199219 321.949219 630.648438 L 321.949219 327.886719 C 321.949219 327.335938 321.976562 326.785156 322.03125 326.238281 C 322.082031 325.6875 322.164062 325.144531 322.273438 324.605469 C 322.378906 324.066406 322.511719 323.53125 322.671875 323.003906 C 322.832031 322.476562 323.019531 321.957031 323.230469 321.449219 C 323.441406 320.941406 323.675781 320.441406 323.933594 319.957031 C 324.195312 319.472656 324.476562 319 324.785156 318.542969 C 325.089844 318.082031 325.417969 317.640625 325.765625 317.214844 C 326.117188 316.789062 326.484375 316.382812 326.875 315.992188 C 327.265625 315.601562 327.671875 315.234375 328.097656 314.882812 C 328.523438 314.535156 328.964844 314.207031 329.425781 313.902344 C 329.882812 313.59375 330.355469 313.3125 330.839844 313.050781 C 331.324219 312.792969 331.824219 312.558594 332.332031 312.347656 C 332.839844 312.136719 333.359375 311.949219 333.886719 311.789062 C 334.414062 311.628906 334.945312 311.496094 335.488281 311.390625 C 336.027344 311.28125 336.570312 311.199219 337.121094 311.148438 C 337.667969 311.09375 338.21875 311.066406 338.769531 311.066406 Z M 338.769531 311.066406 " fill-opacity="1" fill-rule="nonzero"/></g></svg>