<svg xmlns="http://www.w3.org/2000/svg" xmlns:xlink="http://www.w3.org/1999/xlink" width="1080" zoomAndPan="magnify" viewBox="0 0 810 809.999993" height="1080" preserveAspectRatio="xMidYMid meet" version="1.0"><defs><clipPath id="2544c0fa32"><path d="M 235.628906 149 L 741 149 L 741 661 L 235.628906 661 Z M 235.628906 149 " clip-rule="nonzero"/></clipPath><clipPath id="72fc33a94a"><path d="M 68.628906 518 L 176 518 L 176 660.546875 L 68.628906 660.546875 Z M 68.628906 518 " clip-rule="nonzero"/></clipPath><clipPath id="bb703409a3"><path d="M 192 412 L 300 412 L 300 660.546875 L 192 660.546875 Z M 192 412 " clip-rule="nonzero"/></clipPath><clipPath id="8a996cba19"><path d="M 317 305.804688 L 423.371094 305.804688 L 423.371094 660.546875 L 317 660.546875 Z M 317 305.804688 " clip-rule="nonzero"/></clipPath></defs><rect x="-81" width="972" fill="#ffffff" y="-80.999999" height="971.999992" fill-opacity="1"/><rect x="-81" width="972" fill="#4d72de" y="-80.999999" height="971.999992" fill-opacity="1"/><g clip-path="url(#2544c0fa32)"><path fill="#ffffff" d="M 584.632812 502.394531 L 740.402344 658.121094 C 740.632812 658.355469 740.777344 658.632812 740.84375 658.957031 C 740.90625 659.28125 740.875 659.59375 740.75 659.898438 C 740.625 660.199219 740.425781 660.445312 740.152344 660.628906 C 739.882812 660.8125 739.582031 660.910156 739.253906 660.914062 C 659.171875 659.433594 588.152344 634.917969 526.195312 587.363281 C 510.070312 575.015625 489.714844 556.328125 465.128906 531.304688 C 429.261719 494.835938 392.480469 457.988281 354.78125 420.753906 C 351.988281 417.960938 352.5625 416.550781 356.507812 416.523438 C 396.503906 416.195312 437.804688 416.25 480.40625 416.6875 C 501.269531 416.90625 517.460938 414.660156 528.988281 409.953125 C 596.667969 382.394531 598.269531 290.691406 531.289062 260.425781 C 521.679688 256.074219 508.207031 253.910156 490.878906 253.9375 C 445.074219 254.019531 398.023438 254.210938 349.730469 254.511719 C 332.316406 254.621094 317.628906 252.570312 305.664062 248.351562 C 264.0625 233.691406 237.125 196.03125 235.644531 151.679688 C 235.640625 151.394531 235.6875 151.117188 235.792969 150.851562 C 235.898438 150.582031 236.046875 150.347656 236.242188 150.144531 C 236.441406 149.9375 236.667969 149.78125 236.929688 149.667969 C 237.1875 149.558594 237.457031 149.503906 237.738281 149.503906 C 322.96875 149.996094 401.871094 149.941406 474.453125 149.339844 C 506.539062 149.066406 530.878906 151.171875 547.46875 155.664062 C 646.644531 182.398438 707.546875 286.667969 677.980469 385.886719 C 663.085938 435.90625 632.082031 473.894531 584.964844 499.847656 C 584.742188 499.972656 584.5625 500.140625 584.421875 500.347656 C 584.28125 500.558594 584.191406 500.789062 584.160156 501.039062 C 584.128906 501.289062 584.152344 501.535156 584.238281 501.773438 C 584.320312 502.011719 584.453125 502.21875 584.632812 502.394531 Z M 584.632812 502.394531 " fill-opacity="1" fill-rule="nonzero"/></g><g clip-path="url(#72fc33a94a)"><path fill="#ffffff" d="M 86.390625 518.949219 L 157.4375 518.949219 C 158.019531 518.949219 158.601562 518.980469 159.179688 519.035156 C 159.757812 519.09375 160.332031 519.179688 160.90625 519.292969 C 161.476562 519.40625 162.039062 519.546875 162.59375 519.714844 C 163.152344 519.882812 163.699219 520.082031 164.238281 520.304688 C 164.773438 520.527344 165.300781 520.773438 165.8125 521.046875 C 166.324219 521.324219 166.824219 521.621094 167.308594 521.945312 C 167.792969 522.265625 168.257812 522.613281 168.707031 522.984375 C 169.15625 523.351562 169.585938 523.742188 170 524.152344 C 170.410156 524.566406 170.800781 524.996094 171.167969 525.445312 C 171.539062 525.894531 171.882812 526.359375 172.207031 526.84375 C 172.53125 527.328125 172.828125 527.828125 173.105469 528.339844 C 173.378906 528.851562 173.625 529.378906 173.847656 529.914062 C 174.070312 530.453125 174.269531 531 174.4375 531.558594 C 174.605469 532.113281 174.746094 532.675781 174.859375 533.246094 C 174.972656 533.820312 175.058594 534.394531 175.117188 534.972656 C 175.171875 535.550781 175.203125 536.132812 175.203125 536.714844 L 175.203125 643.285156 C 175.203125 643.867188 175.171875 644.449219 175.117188 645.027344 C 175.058594 645.605469 174.972656 646.179688 174.859375 646.75 C 174.746094 647.320312 174.605469 647.886719 174.4375 648.441406 C 174.269531 649 174.070312 649.546875 173.847656 650.082031 C 173.625 650.621094 173.378906 651.144531 173.105469 651.660156 C 172.828125 652.171875 172.53125 652.667969 172.207031 653.152344 C 171.882812 653.636719 171.539062 654.105469 171.167969 654.554688 C 170.800781 655.003906 170.410156 655.433594 170 655.84375 C 169.585938 656.257812 169.15625 656.648438 168.707031 657.015625 C 168.257812 657.386719 167.792969 657.730469 167.308594 658.054688 C 166.824219 658.378906 166.324219 658.675781 165.8125 658.949219 C 165.300781 659.222656 164.773438 659.472656 164.238281 659.695312 C 163.699219 659.917969 163.152344 660.113281 162.59375 660.28125 C 162.039062 660.453125 161.476562 660.59375 160.90625 660.707031 C 160.332031 660.820312 159.757812 660.90625 159.179688 660.960938 C 158.601562 661.019531 158.019531 661.046875 157.4375 661.046875 L 86.390625 661.046875 C 85.808594 661.046875 85.230469 661.019531 84.648438 660.960938 C 84.070312 660.90625 83.496094 660.820312 82.925781 660.707031 C 82.355469 660.59375 81.792969 660.453125 81.234375 660.28125 C 80.679688 660.113281 80.132812 659.917969 79.59375 659.695312 C 79.054688 659.472656 78.53125 659.222656 78.019531 658.949219 C 77.503906 658.675781 77.007812 658.378906 76.523438 658.054688 C 76.039062 657.730469 75.574219 657.386719 75.121094 657.015625 C 74.671875 656.648438 74.242188 656.257812 73.832031 655.84375 C 73.421875 655.433594 73.03125 655.003906 72.660156 654.554688 C 72.292969 654.105469 71.945312 653.636719 71.621094 653.152344 C 71.300781 652.667969 71 652.171875 70.726562 651.660156 C 70.453125 651.144531 70.203125 650.621094 69.980469 650.082031 C 69.757812 649.546875 69.5625 649 69.394531 648.441406 C 69.226562 647.886719 69.082031 647.320312 68.96875 646.75 C 68.855469 646.179688 68.769531 645.605469 68.714844 645.027344 C 68.65625 644.449219 68.628906 643.867188 68.628906 643.285156 L 68.628906 536.714844 C 68.628906 536.132812 68.65625 535.550781 68.714844 534.972656 C 68.769531 534.394531 68.855469 533.820312 68.96875 533.246094 C 69.082031 532.675781 69.226562 532.113281 69.394531 531.558594 C 69.5625 531 69.757812 530.453125 69.980469 529.914062 C 70.203125 529.378906 70.453125 528.851562 70.726562 528.339844 C 71 527.828125 71.300781 527.328125 71.621094 526.84375 C 71.945312 526.359375 72.292969 525.894531 72.660156 525.445312 C 73.03125 524.996094 73.421875 524.566406 73.832031 524.152344 C 74.242188 523.742188 74.671875 523.351562 75.121094 522.984375 C 75.574219 522.613281 76.039062 522.265625 76.523438 521.945312 C 77.007812 521.621094 77.503906 521.324219 78.019531 521.046875 C 78.53125 520.773438 79.054688 520.527344 79.59375 520.304688 C 80.132812 520.082031 80.679688 519.882812 81.234375 519.714844 C 81.792969 519.546875 82.355469 519.40625 82.925781 519.292969 C 83.496094 519.179688 84.070312 519.09375 84.648438 519.035156 C 85.230469 518.980469 85.808594 518.949219 86.390625 518.949219 Z M 86.390625 518.949219 " fill-opacity="1" fill-rule="nonzero"/></g><g clip-path="url(#bb703409a3)"><path fill="#ffffff" d="M 210.726562 412.378906 L 281.773438 412.378906 C 282.355469 412.378906 282.9375 412.40625 283.515625 412.464844 C 284.09375 412.519531 284.667969 412.605469 285.238281 412.71875 C 285.808594 412.832031 286.375 412.972656 286.929688 413.144531 C 287.488281 413.3125 288.035156 413.507812 288.570312 413.730469 C 289.109375 413.953125 289.632812 414.203125 290.148438 414.476562 C 290.660156 414.75 291.160156 415.046875 291.640625 415.371094 C 292.125 415.695312 292.59375 416.042969 293.042969 416.410156 C 293.492188 416.777344 293.921875 417.167969 294.332031 417.582031 C 294.746094 417.992188 295.136719 418.421875 295.503906 418.871094 C 295.875 419.320312 296.21875 419.789062 296.542969 420.273438 C 296.867188 420.757812 297.164062 421.253906 297.4375 421.765625 C 297.710938 422.28125 297.960938 422.804688 298.183594 423.34375 C 298.40625 423.878906 298.601562 424.429688 298.769531 424.984375 C 298.941406 425.542969 299.082031 426.105469 299.195312 426.675781 C 299.308594 427.246094 299.394531 427.820312 299.449219 428.398438 C 299.507812 428.976562 299.535156 429.558594 299.535156 430.140625 L 299.535156 643.285156 C 299.535156 643.867188 299.507812 644.449219 299.449219 645.027344 C 299.394531 645.605469 299.308594 646.179688 299.195312 646.75 C 299.082031 647.320312 298.941406 647.886719 298.769531 648.441406 C 298.601562 649 298.40625 649.546875 298.183594 650.082031 C 297.960938 650.621094 297.710938 651.144531 297.4375 651.660156 C 297.164062 652.171875 296.867188 652.667969 296.542969 653.152344 C 296.21875 653.636719 295.875 654.105469 295.503906 654.554688 C 295.136719 655.003906 294.746094 655.433594 294.332031 655.84375 C 293.921875 656.257812 293.492188 656.648438 293.042969 657.015625 C 292.59375 657.386719 292.125 657.730469 291.640625 658.054688 C 291.160156 658.378906 290.660156 658.675781 290.148438 658.949219 C 289.632812 659.222656 289.109375 659.472656 288.570312 659.695312 C 288.035156 659.917969 287.488281 660.113281 286.929688 660.28125 C 286.375 660.453125 285.808594 660.59375 285.238281 660.707031 C 284.667969 660.820312 284.09375 660.90625 283.515625 660.960938 C 282.9375 661.019531 282.355469 661.046875 281.773438 661.046875 L 210.726562 661.046875 C 210.144531 661.046875 209.5625 661.019531 208.984375 660.960938 C 208.40625 660.90625 207.832031 660.820312 207.261719 660.707031 C 206.691406 660.59375 206.125 660.453125 205.570312 660.28125 C 205.011719 660.113281 204.464844 659.917969 203.929688 659.695312 C 203.390625 659.472656 202.867188 659.222656 202.351562 658.949219 C 201.839844 658.675781 201.339844 658.378906 200.859375 658.054688 C 200.375 657.730469 199.90625 657.386719 199.457031 657.015625 C 199.007812 656.648438 198.578125 656.257812 198.164062 655.84375 C 197.753906 655.433594 197.363281 655.003906 196.996094 654.554688 C 196.625 654.105469 196.28125 653.636719 195.957031 653.152344 C 195.632812 652.667969 195.335938 652.171875 195.0625 651.660156 C 194.785156 651.144531 194.539062 650.621094 194.316406 650.082031 C 194.09375 649.546875 193.898438 649 193.726562 648.441406 C 193.558594 647.886719 193.417969 647.320312 193.304688 646.75 C 193.191406 646.179688 193.105469 645.605469 193.050781 645.027344 C 192.992188 644.449219 192.964844 643.867188 192.964844 643.285156 L 192.964844 430.140625 C 192.964844 429.558594 192.992188 428.976562 193.050781 428.398438 C 193.105469 427.820312 193.191406 427.246094 193.304688 426.675781 C 193.417969 426.105469 193.558594 425.542969 193.726562 424.984375 C 193.898438 424.429688 194.09375 423.878906 194.316406 423.34375 C 194.539062 422.804688 194.785156 422.28125 195.0625 421.765625 C 195.335938 421.253906 195.632812 420.757812 195.957031 420.273438 C 196.28125 419.789062 196.625 419.320312 196.996094 418.871094 C 197.363281 418.421875 197.753906 417.992188 198.164062 417.582031 C 198.578125 417.167969 199.007812 416.777344 199.457031 416.410156 C 199.90625 416.042969 200.375 415.695312 200.859375 415.371094 C 201.339844 415.046875 201.839844 414.75 202.351562 414.476562 C 202.867188 414.203125 203.390625 413.953125 203.929688 413.730469 C 204.464844 413.507812 205.011719 413.3125 205.570312 413.144531 C 206.125 412.972656 206.691406 412.832031 207.261719 412.71875 C 207.832031 412.605469 208.40625 412.519531 208.984375 412.464844 C 209.5625 412.40625 210.144531 412.378906 210.726562 412.378906 Z M 210.726562 412.378906 " fill-opacity="1" fill-rule="nonzero"/></g><g clip-path="url(#8a996cba19)"><path fill="#ffffff" d="M 335.058594 305.804688 L 406.109375 305.804688 C 406.691406 305.804688 407.269531 305.835938 407.847656 305.890625 C 408.429688 305.949219 409.003906 306.035156 409.574219 306.148438 C 410.144531 306.261719 410.707031 306.402344 411.265625 306.570312 C 411.820312 306.738281 412.367188 306.933594 412.90625 307.15625 C 413.441406 307.378906 413.96875 307.628906 414.480469 307.902344 C 414.996094 308.175781 415.492188 308.476562 415.976562 308.800781 C 416.460938 309.121094 416.925781 309.46875 417.375 309.835938 C 417.828125 310.207031 418.257812 310.597656 418.667969 311.007812 C 419.078125 311.417969 419.46875 311.851562 419.839844 312.300781 C 420.207031 312.75 420.554688 313.214844 420.878906 313.699219 C 421.199219 314.183594 421.5 314.683594 421.773438 315.195312 C 422.046875 315.707031 422.296875 316.234375 422.519531 316.769531 C 422.742188 317.308594 422.9375 317.855469 423.105469 318.410156 C 423.273438 318.96875 423.414062 319.53125 423.527344 320.101562 C 423.644531 320.671875 423.726562 321.25 423.785156 321.828125 C 423.84375 322.40625 423.871094 322.984375 423.871094 323.566406 L 423.871094 643.285156 C 423.871094 643.867188 423.84375 644.449219 423.785156 645.027344 C 423.726562 645.605469 423.644531 646.179688 423.527344 646.75 C 423.414062 647.320312 423.273438 647.886719 423.105469 648.441406 C 422.9375 649 422.742188 649.546875 422.519531 650.082031 C 422.296875 650.621094 422.046875 651.144531 421.773438 651.660156 C 421.5 652.171875 421.199219 652.667969 420.878906 653.152344 C 420.554688 653.636719 420.207031 654.105469 419.839844 654.554688 C 419.46875 655.003906 419.078125 655.433594 418.667969 655.84375 C 418.257812 656.257812 417.828125 656.648438 417.375 657.015625 C 416.925781 657.386719 416.460938 657.730469 415.976562 658.054688 C 415.492188 658.378906 414.996094 658.675781 414.480469 658.949219 C 413.96875 659.222656 413.441406 659.472656 412.90625 659.695312 C 412.367188 659.917969 411.820312 660.113281 411.265625 660.28125 C 410.707031 660.453125 410.144531 660.59375 409.574219 660.707031 C 409.003906 660.820312 408.429688 660.90625 407.847656 660.960938 C 407.269531 661.019531 406.691406 661.046875 406.109375 661.046875 L 335.058594 661.046875 C 334.476562 661.046875 333.898438 661.019531 333.320312 660.960938 C 332.738281 660.90625 332.164062 660.820312 331.59375 660.707031 C 331.023438 660.59375 330.460938 660.453125 329.902344 660.28125 C 329.347656 660.113281 328.800781 659.917969 328.261719 659.695312 C 327.726562 659.472656 327.199219 659.222656 326.6875 658.949219 C 326.175781 658.675781 325.675781 658.378906 325.191406 658.054688 C 324.707031 657.730469 324.242188 657.386719 323.792969 657.015625 C 323.34375 656.648438 322.910156 656.257812 322.5 655.84375 C 322.089844 655.433594 321.699219 655.003906 321.328125 654.554688 C 320.960938 654.105469 320.613281 653.636719 320.292969 653.152344 C 319.96875 652.667969 319.667969 652.171875 319.394531 651.660156 C 319.121094 651.144531 318.871094 650.621094 318.648438 650.082031 C 318.425781 649.546875 318.230469 649 318.0625 648.441406 C 317.894531 647.886719 317.753906 647.320312 317.640625 646.75 C 317.527344 646.179688 317.441406 645.605469 317.382812 645.027344 C 317.328125 644.449219 317.296875 643.867188 317.296875 643.285156 L 317.296875 323.566406 C 317.296875 322.984375 317.328125 322.40625 317.382812 321.828125 C 317.441406 321.25 317.527344 320.671875 317.640625 320.101562 C 317.753906 319.53125 317.894531 318.96875 318.0625 318.410156 C 318.230469 317.855469 318.425781 317.308594 318.648438 316.769531 C 318.871094 316.234375 319.121094 315.707031 319.394531 315.195312 C 319.667969 314.683594 319.96875 314.183594 320.292969 313.699219 C 320.613281 313.214844 320.960938 312.75 321.328125 312.300781 C 321.699219 311.851562 322.089844 311.417969 322.5 311.007812 C 322.910156 310.597656 323.34375 310.207031 323.792969 309.835938 C 324.242188 309.46875 324.707031 309.121094 325.191406 308.800781 C 325.675781 308.476562 326.175781 308.175781 326.6875 307.902344 C 327.199219 307.628906 327.726562 307.378906 328.261719 307.15625 C 328.800781 306.933594 329.347656 306.738281 329.902344 306.570312 C 330.460938 306.402344 331.023438 306.261719 331.59375 306.148438 C 332.164062 306.035156 332.738281 305.949219 333.320312 305.890625 C 333.898438 305.835938 334.476562 305.804688 335.058594 305.804688 Z M 335.058594 305.804688 " fill-opacity="1" fill-rule="nonzero"/></g></svg>