<svg xmlns="http://www.w3.org/2000/svg" xmlns:xlink="http://www.w3.org/1999/xlink" width="1080" zoomAndPan="magnify" viewBox="0 0 810 809.999993" height="1080" preserveAspectRatio="xMidYMid meet" version="1.0"><defs><clipPath id="5858fe469a"><path d="M 284.96875 242.007812 L 606.921875 242.007812 L 606.921875 568 L 284.96875 568 Z M 284.96875 242.007812 " clip-rule="nonzero"/></clipPath><clipPath id="72e84ad652"><path d="M 178.671875 477 L 247 477 L 247 567.914062 L 178.671875 567.914062 Z M 178.671875 477 " clip-rule="nonzero"/></clipPath><clipPath id="588e95594e"><path d="M 257 409 L 326 409 L 326 567.914062 L 257 567.914062 Z M 257 409 " clip-rule="nonzero"/></clipPath><clipPath id="f09f2506a1"><path d="M 336 341.863281 L 404.722656 341.863281 L 404.722656 567.914062 L 336 567.914062 Z M 336 341.863281 " clip-rule="nonzero"/></clipPath></defs><rect x="-81" width="972" fill="#ffffff" y="-80.999999" height="971.999992" fill-opacity="1"/><rect x="-81" width="972" fill="#4d72de" y="-80.999999" height="971.999992" fill-opacity="1"/><g clip-path="url(#5858fe469a)"><path fill="#ffffff" d="M 507.117188 467.003906 L 606.269531 566.132812 C 606.414062 566.28125 606.507812 566.457031 606.550781 566.664062 C 606.589844 566.871094 606.570312 567.070312 606.488281 567.261719 C 606.410156 567.457031 606.285156 567.609375 606.109375 567.730469 C 605.9375 567.847656 605.746094 567.90625 605.539062 567.910156 C 554.5625 566.96875 509.355469 551.363281 469.917969 521.089844 C 459.652344 513.230469 446.695312 501.335938 431.046875 485.410156 C 408.214844 462.195312 384.800781 438.738281 360.804688 415.035156 C 359.027344 413.257812 359.394531 412.363281 361.902344 412.34375 C 387.363281 412.136719 413.652344 412.167969 440.769531 412.449219 C 454.050781 412.589844 464.359375 411.160156 471.695312 408.160156 C 514.777344 390.621094 515.796875 332.246094 473.160156 312.980469 C 467.042969 310.210938 458.46875 308.835938 447.4375 308.851562 C 418.28125 308.902344 388.332031 309.027344 357.589844 309.21875 C 346.503906 309.289062 337.15625 307.980469 329.539062 305.296875 C 303.058594 295.964844 285.910156 271.992188 284.96875 243.761719 C 284.964844 243.578125 284.996094 243.402344 285.0625 243.230469 C 285.128906 243.0625 285.226562 242.914062 285.351562 242.78125 C 285.476562 242.652344 285.621094 242.550781 285.785156 242.480469 C 285.953125 242.410156 286.125 242.375 286.300781 242.375 C 340.554688 242.6875 390.78125 242.652344 436.980469 242.269531 C 457.40625 242.097656 472.898438 243.4375 483.457031 246.296875 C 546.589844 263.3125 585.355469 329.6875 566.535156 392.84375 C 557.054688 424.683594 537.316406 448.863281 507.324219 465.382812 C 507.183594 465.464844 507.070312 465.570312 506.980469 465.703125 C 506.890625 465.835938 506.835938 465.984375 506.816406 466.140625 C 506.792969 466.300781 506.808594 466.457031 506.863281 466.609375 C 506.917969 466.761719 507 466.894531 507.117188 467.003906 Z M 507.117188 467.003906 " fill-opacity="1" fill-rule="nonzero"/></g><g clip-path="url(#72e84ad652)"><path fill="#ffffff" d="M 189.980469 477.535156 L 235.203125 477.535156 C 235.945312 477.535156 236.679688 477.605469 237.410156 477.75 C 238.136719 477.894531 238.84375 478.109375 239.527344 478.394531 C 240.214844 478.679688 240.867188 479.027344 241.484375 479.4375 C 242.101562 479.851562 242.671875 480.320312 243.195312 480.84375 C 243.722656 481.371094 244.191406 481.941406 244.601562 482.558594 C 245.015625 483.175781 245.363281 483.828125 245.648438 484.511719 C 245.933594 485.199219 246.144531 485.90625 246.292969 486.632812 C 246.4375 487.363281 246.507812 488.097656 246.507812 488.839844 L 246.507812 556.675781 C 246.507812 557.417969 246.4375 558.152344 246.292969 558.878906 C 246.144531 559.609375 245.933594 560.316406 245.648438 561 C 245.363281 561.6875 245.015625 562.339844 244.601562 562.957031 C 244.191406 563.574219 243.722656 564.144531 243.195312 564.667969 C 242.671875 565.195312 242.101562 565.664062 241.484375 566.074219 C 240.867188 566.488281 240.214844 566.835938 239.527344 567.121094 C 238.84375 567.402344 238.136719 567.617188 237.410156 567.761719 C 236.679688 567.910156 235.945312 567.980469 235.203125 567.980469 L 189.980469 567.980469 C 189.238281 567.980469 188.5 567.910156 187.773438 567.761719 C 187.046875 567.617188 186.339844 567.402344 185.652344 567.121094 C 184.964844 566.835938 184.316406 566.488281 183.699219 566.074219 C 183.082031 565.664062 182.507812 565.195312 181.984375 564.667969 C 181.460938 564.144531 180.992188 563.574219 180.578125 562.957031 C 180.164062 562.339844 179.816406 561.6875 179.535156 561 C 179.25 560.316406 179.035156 559.609375 178.890625 558.878906 C 178.746094 558.152344 178.671875 557.417969 178.671875 556.675781 L 178.671875 488.839844 C 178.671875 488.097656 178.746094 487.363281 178.890625 486.632812 C 179.035156 485.90625 179.25 485.199219 179.535156 484.511719 C 179.816406 483.828125 180.164062 483.175781 180.578125 482.558594 C 180.992188 481.941406 181.460938 481.371094 181.984375 480.84375 C 182.507812 480.320312 183.082031 479.851562 183.699219 479.4375 C 184.316406 479.027344 184.964844 478.679688 185.652344 478.394531 C 186.339844 478.109375 187.046875 477.894531 187.773438 477.75 C 188.5 477.605469 189.238281 477.535156 189.980469 477.535156 Z M 189.980469 477.535156 " fill-opacity="1" fill-rule="nonzero"/></g><g clip-path="url(#588e95594e)"><path fill="#ffffff" d="M 269.121094 409.699219 L 314.34375 409.699219 C 315.085938 409.699219 315.820312 409.769531 316.550781 409.914062 C 317.277344 410.058594 317.984375 410.273438 318.671875 410.558594 C 319.355469 410.84375 320.007812 411.191406 320.625 411.601562 C 321.242188 412.015625 321.8125 412.484375 322.339844 413.007812 C 322.863281 413.535156 323.332031 414.105469 323.746094 414.722656 C 324.15625 415.339844 324.503906 415.992188 324.789062 416.675781 C 325.074219 417.363281 325.289062 418.070312 325.433594 418.796875 C 325.578125 419.527344 325.648438 420.261719 325.648438 421.003906 L 325.648438 556.675781 C 325.648438 557.417969 325.578125 558.152344 325.433594 558.878906 C 325.289062 559.609375 325.074219 560.316406 324.789062 561 C 324.503906 561.6875 324.15625 562.339844 323.746094 562.957031 C 323.332031 563.574219 322.863281 564.144531 322.339844 564.667969 C 321.8125 565.195312 321.242188 565.664062 320.625 566.074219 C 320.007812 566.488281 319.355469 566.835938 318.671875 567.121094 C 317.984375 567.402344 317.277344 567.617188 316.550781 567.761719 C 315.820312 567.910156 315.085938 567.980469 314.34375 567.980469 L 269.121094 567.980469 C 268.378906 567.980469 267.644531 567.910156 266.914062 567.761719 C 266.1875 567.617188 265.480469 567.402344 264.792969 567.121094 C 264.109375 566.835938 263.457031 566.488281 262.839844 566.074219 C 262.222656 565.664062 261.652344 565.195312 261.125 564.667969 C 260.601562 564.144531 260.132812 563.574219 259.71875 562.957031 C 259.308594 562.339844 258.960938 561.6875 258.675781 561 C 258.390625 560.316406 258.175781 559.609375 258.03125 558.878906 C 257.886719 558.152344 257.8125 557.417969 257.8125 556.675781 L 257.8125 421.003906 C 257.8125 420.261719 257.886719 419.527344 258.03125 418.796875 C 258.175781 418.070312 258.390625 417.363281 258.675781 416.675781 C 258.960938 415.992188 259.308594 415.339844 259.71875 414.722656 C 260.132812 414.105469 260.601562 413.535156 261.125 413.007812 C 261.652344 412.484375 262.222656 412.015625 262.839844 411.601562 C 263.457031 411.191406 264.109375 410.84375 264.792969 410.558594 C 265.480469 410.273438 266.1875 410.058594 266.914062 409.914062 C 267.644531 409.769531 268.378906 409.699219 269.121094 409.699219 Z M 269.121094 409.699219 " fill-opacity="1" fill-rule="nonzero"/></g><g clip-path="url(#f09f2506a1)"><path fill="#ffffff" d="M 348.261719 341.863281 L 393.484375 341.863281 C 394.226562 341.863281 394.964844 341.933594 395.691406 342.078125 C 396.417969 342.222656 397.125 342.4375 397.8125 342.722656 C 398.496094 343.007812 399.148438 343.355469 399.765625 343.769531 C 400.382812 344.179688 400.957031 344.648438 401.480469 345.171875 C 402.003906 345.699219 402.472656 346.269531 402.886719 346.886719 C 403.296875 347.503906 403.648438 348.15625 403.929688 348.839844 C 404.214844 349.527344 404.429688 350.234375 404.574219 350.960938 C 404.71875 351.691406 404.792969 352.425781 404.792969 353.167969 L 404.792969 556.675781 C 404.792969 557.417969 404.71875 558.152344 404.574219 558.878906 C 404.429688 559.609375 404.214844 560.316406 403.929688 561 C 403.648438 561.6875 403.296875 562.339844 402.886719 562.957031 C 402.472656 563.574219 402.003906 564.144531 401.480469 564.667969 C 400.957031 565.195312 400.382812 565.664062 399.765625 566.074219 C 399.148438 566.488281 398.496094 566.835938 397.8125 567.121094 C 397.125 567.402344 396.417969 567.617188 395.691406 567.761719 C 394.964844 567.910156 394.226562 567.980469 393.484375 567.980469 L 348.261719 567.980469 C 347.519531 567.980469 346.785156 567.910156 346.054688 567.761719 C 345.328125 567.617188 344.621094 567.402344 343.933594 567.121094 C 343.25 566.835938 342.597656 566.488281 341.980469 566.074219 C 341.363281 565.664062 340.792969 565.195312 340.265625 564.667969 C 339.742188 564.144531 339.273438 563.574219 338.859375 562.957031 C 338.449219 562.339844 338.101562 561.6875 337.816406 561 C 337.53125 560.316406 337.316406 559.609375 337.171875 558.878906 C 337.027344 558.152344 336.957031 557.417969 336.957031 556.675781 L 336.957031 353.167969 C 336.957031 352.425781 337.027344 351.691406 337.171875 350.960938 C 337.316406 350.234375 337.53125 349.527344 337.816406 348.839844 C 338.101562 348.15625 338.449219 347.503906 338.859375 346.886719 C 339.273438 346.269531 339.742188 345.699219 340.265625 345.171875 C 340.792969 344.648438 341.363281 344.179688 341.980469 343.769531 C 342.597656 343.355469 343.25 343.007812 343.933594 342.722656 C 344.621094 342.4375 345.328125 342.222656 346.054688 342.078125 C 346.785156 341.933594 347.519531 341.863281 348.261719 341.863281 Z M 348.261719 341.863281 " fill-opacity="1" fill-rule="nonzero"/></g></svg>