<svg xmlns="http://www.w3.org/2000/svg" xmlns:xlink="http://www.w3.org/1999/xlink" width="1080" zoomAndPan="magnify" viewBox="0 0 810 809.999993" height="1080" preserveAspectRatio="xMidYMid meet" version="1.0"><defs><clipPath id="993fc0d177"><path d="M 239.800781 161.503906 L 720.769531 161.503906 L 720.769531 648.871094 L 239.800781 648.871094 Z M 239.800781 161.503906 " clip-rule="nonzero"/></clipPath><clipPath id="d5aab4d277"><path d="M 81 513 L 183 513 L 183 648.378906 L 81 648.378906 Z M 81 513 " clip-rule="nonzero"/></clipPath><clipPath id="bea6cee821"><path d="M 199 412 L 301 412 L 301 648.378906 L 199 648.378906 Z M 199 412 " clip-rule="nonzero"/></clipPath><clipPath id="782248ac15"><path d="M 317 310.675781 L 418.703125 310.675781 L 418.703125 648.378906 L 317 648.378906 Z M 317 310.675781 " clip-rule="nonzero"/></clipPath></defs><g clip-path="url(#993fc0d177)"><path fill="#ffffff" d="M 571.667969 497.628906 L 719.792969 645.71875 C 720.011719 645.941406 720.152344 646.207031 720.210938 646.511719 C 720.273438 646.820312 720.242188 647.117188 720.121094 647.40625 C 720.003906 647.695312 719.816406 647.925781 719.558594 648.101562 C 719.296875 648.277344 719.011719 648.367188 718.699219 648.375 C 642.546875 646.96875 575.011719 623.652344 516.09375 578.429688 C 500.761719 566.6875 481.402344 548.917969 458.023438 525.125 C 423.917969 490.445312 388.941406 455.402344 353.089844 419.992188 C 350.433594 417.339844 350.980469 415.996094 354.730469 415.972656 C 392.765625 415.660156 432.042969 415.710938 472.550781 416.128906 C 492.390625 416.335938 507.789062 414.199219 518.75 409.722656 C 583.109375 383.519531 584.632812 296.3125 520.9375 267.53125 C 511.800781 263.394531 498.992188 261.335938 482.511719 261.363281 C 438.953125 261.441406 394.210938 261.621094 348.285156 261.910156 C 331.726562 262.011719 317.761719 260.058594 306.382812 256.050781 C 266.824219 242.109375 241.203125 206.296875 239.796875 164.121094 C 239.792969 163.847656 239.839844 163.585938 239.9375 163.332031 C 240.035156 163.078125 240.179688 162.855469 240.367188 162.660156 C 240.554688 162.464844 240.773438 162.316406 241.019531 162.210938 C 241.265625 162.105469 241.523438 162.050781 241.789062 162.050781 C 322.835938 162.519531 397.871094 162.46875 466.890625 161.894531 C 497.402344 161.632812 520.546875 163.640625 536.324219 167.910156 C 630.636719 193.332031 688.550781 292.488281 660.433594 386.839844 C 646.269531 434.402344 616.785156 470.527344 571.980469 495.210938 C 571.769531 495.328125 571.597656 495.484375 571.464844 495.683594 C 571.328125 495.882812 571.246094 496.101562 571.214844 496.339844 C 571.1875 496.578125 571.210938 496.8125 571.289062 497.039062 C 571.367188 497.265625 571.496094 497.464844 571.667969 497.628906 Z M 571.667969 497.628906 " fill-opacity="1" fill-rule="nonzero"/></g><g clip-path="url(#d5aab4d277)"><path fill="#ffffff" d="M 97.890625 513.359375 L 165.449219 513.359375 C 166.003906 513.359375 166.554688 513.386719 167.105469 513.441406 C 167.65625 513.496094 168.203125 513.574219 168.746094 513.683594 C 169.289062 513.792969 169.824219 513.925781 170.355469 514.085938 C 170.882812 514.246094 171.402344 514.433594 171.914062 514.644531 C 172.425781 514.855469 172.925781 515.09375 173.414062 515.351562 C 173.902344 515.613281 174.375 515.898438 174.835938 516.207031 C 175.292969 516.511719 175.738281 516.839844 176.164062 517.191406 C 176.59375 517.542969 177.003906 517.914062 177.394531 518.304688 C 177.785156 518.695312 178.15625 519.105469 178.507812 519.535156 C 178.859375 519.960938 179.1875 520.40625 179.496094 520.867188 C 179.800781 521.324219 180.085938 521.800781 180.347656 522.285156 C 180.605469 522.773438 180.84375 523.273438 181.054688 523.785156 C 181.265625 524.296875 181.453125 524.816406 181.613281 525.347656 C 181.773438 525.875 181.910156 526.410156 182.015625 526.953125 C 182.125 527.496094 182.207031 528.042969 182.257812 528.59375 C 182.3125 529.144531 182.339844 529.695312 182.339844 530.25 L 182.339844 631.589844 C 182.339844 632.144531 182.3125 632.695312 182.257812 633.246094 C 182.207031 633.796875 182.125 634.34375 182.015625 634.886719 C 181.910156 635.425781 181.773438 635.964844 181.613281 636.492188 C 181.453125 637.023438 181.265625 637.542969 181.054688 638.054688 C 180.84375 638.5625 180.605469 639.0625 180.347656 639.550781 C 180.085938 640.039062 179.800781 640.511719 179.496094 640.972656 C 179.1875 641.433594 178.859375 641.878906 178.507812 642.304688 C 178.15625 642.730469 177.785156 643.140625 177.394531 643.53125 C 177.003906 643.925781 176.59375 644.296875 176.164062 644.644531 C 175.738281 644.996094 175.292969 645.324219 174.835938 645.632812 C 174.375 645.941406 173.902344 646.226562 173.414062 646.484375 C 172.925781 646.746094 172.425781 646.980469 171.914062 647.195312 C 171.402344 647.40625 170.882812 647.59375 170.355469 647.753906 C 169.824219 647.914062 169.289062 648.046875 168.746094 648.15625 C 168.203125 648.261719 167.65625 648.34375 167.105469 648.398438 C 166.554688 648.453125 166.003906 648.480469 165.449219 648.480469 L 97.890625 648.480469 C 97.335938 648.480469 96.785156 648.453125 96.234375 648.398438 C 95.683594 648.34375 95.136719 648.261719 94.59375 648.15625 C 94.050781 648.046875 93.515625 647.914062 92.988281 647.753906 C 92.457031 647.59375 91.9375 647.40625 91.425781 647.195312 C 90.914062 646.980469 90.417969 646.746094 89.929688 646.484375 C 89.441406 646.226562 88.964844 645.941406 88.507812 645.632812 C 88.046875 645.324219 87.601562 644.996094 87.175781 644.644531 C 86.746094 644.296875 86.339844 643.925781 85.945312 643.53125 C 85.554688 643.140625 85.183594 642.730469 84.832031 642.304688 C 84.484375 641.878906 84.152344 641.433594 83.847656 640.972656 C 83.539062 640.511719 83.253906 640.039062 82.996094 639.550781 C 82.734375 639.0625 82.496094 638.5625 82.285156 638.054688 C 82.074219 637.542969 81.886719 637.023438 81.726562 636.492188 C 81.566406 635.964844 81.433594 635.425781 81.324219 634.886719 C 81.214844 634.34375 81.136719 633.796875 81.082031 633.246094 C 81.027344 632.695312 81 632.144531 81 631.589844 L 81 530.25 C 81 529.695312 81.027344 529.144531 81.082031 528.59375 C 81.136719 528.042969 81.214844 527.496094 81.324219 526.953125 C 81.433594 526.410156 81.566406 525.875 81.726562 525.347656 C 81.886719 524.816406 82.074219 524.296875 82.285156 523.785156 C 82.496094 523.273438 82.734375 522.773438 82.996094 522.285156 C 83.253906 521.800781 83.539062 521.324219 83.847656 520.867188 C 84.152344 520.40625 84.484375 519.960938 84.832031 519.535156 C 85.183594 519.105469 85.554688 518.695312 85.945312 518.304688 C 86.339844 517.914062 86.746094 517.542969 87.175781 517.191406 C 87.601562 516.839844 88.046875 516.511719 88.507812 516.207031 C 88.964844 515.898438 89.441406 515.613281 89.929688 515.351562 C 90.417969 515.09375 90.914062 514.855469 91.425781 514.644531 C 91.9375 514.433594 92.457031 514.246094 92.988281 514.085938 C 93.515625 513.925781 94.050781 513.792969 94.59375 513.683594 C 95.136719 513.574219 95.683594 513.496094 96.234375 513.441406 C 96.785156 513.386719 97.335938 513.359375 97.890625 513.359375 Z M 97.890625 513.359375 " fill-opacity="1" fill-rule="nonzero"/></g><g clip-path="url(#bea6cee821)"><path fill="#ffffff" d="M 216.121094 412.019531 L 283.679688 412.019531 C 284.234375 412.019531 284.785156 412.046875 285.335938 412.097656 C 285.886719 412.152344 286.433594 412.234375 286.976562 412.34375 C 287.519531 412.449219 288.054688 412.585938 288.585938 412.746094 C 289.113281 412.90625 289.632812 413.09375 290.144531 413.304688 C 290.65625 413.515625 291.15625 413.75 291.644531 414.011719 C 292.132812 414.273438 292.605469 414.558594 293.066406 414.863281 C 293.523438 415.171875 293.96875 415.5 294.394531 415.851562 C 294.824219 416.203125 295.234375 416.574219 295.625 416.964844 C 296.015625 417.355469 296.386719 417.765625 296.738281 418.191406 C 297.089844 418.621094 297.417969 419.066406 297.726562 419.523438 C 298.03125 419.984375 298.316406 420.457031 298.578125 420.945312 C 298.839844 421.433594 299.074219 421.933594 299.285156 422.445312 C 299.496094 422.957031 299.683594 423.476562 299.84375 424.003906 C 300.003906 424.535156 300.140625 425.070312 300.246094 425.613281 C 300.355469 426.15625 300.4375 426.703125 300.492188 427.253906 C 300.542969 427.804688 300.570312 428.355469 300.570312 428.910156 L 300.570312 631.589844 C 300.570312 632.144531 300.542969 632.695312 300.488281 633.246094 C 300.4375 633.796875 300.355469 634.34375 300.246094 634.886719 C 300.140625 635.425781 300.003906 635.964844 299.84375 636.492188 C 299.683594 637.023438 299.496094 637.542969 299.285156 638.054688 C 299.074219 638.5625 298.839844 639.0625 298.578125 639.550781 C 298.316406 640.039062 298.03125 640.511719 297.726562 640.972656 C 297.417969 641.433594 297.089844 641.878906 296.738281 642.304688 C 296.386719 642.730469 296.015625 643.140625 295.625 643.53125 C 295.234375 643.925781 294.824219 644.296875 294.394531 644.644531 C 293.96875 644.996094 293.523438 645.324219 293.066406 645.632812 C 292.605469 645.941406 292.132812 646.226562 291.644531 646.484375 C 291.15625 646.746094 290.65625 646.980469 290.144531 647.195312 C 289.632812 647.40625 289.113281 647.59375 288.585938 647.753906 C 288.054688 647.914062 287.519531 648.046875 286.976562 648.15625 C 286.433594 648.261719 285.886719 648.34375 285.335938 648.398438 C 284.785156 648.453125 284.234375 648.480469 283.679688 648.480469 L 216.121094 648.480469 C 215.566406 648.480469 215.015625 648.453125 214.464844 648.398438 C 213.914062 648.34375 213.367188 648.261719 212.824219 648.15625 C 212.285156 648.046875 211.746094 647.914062 211.21875 647.753906 C 210.6875 647.59375 210.167969 647.40625 209.65625 647.195312 C 209.144531 646.980469 208.648438 646.746094 208.160156 646.484375 C 207.671875 646.226562 207.195312 645.941406 206.738281 645.632812 C 206.277344 645.324219 205.832031 644.996094 205.40625 644.644531 C 204.976562 644.296875 204.570312 643.925781 204.179688 643.53125 C 203.785156 643.140625 203.414062 642.730469 203.066406 642.304688 C 202.714844 641.878906 202.382812 641.433594 202.078125 640.972656 C 201.769531 640.511719 201.484375 640.039062 201.226562 639.550781 C 200.964844 639.0625 200.726562 638.5625 200.515625 638.054688 C 200.304688 637.542969 200.117188 637.023438 199.957031 636.492188 C 199.796875 635.964844 199.664062 635.425781 199.554688 634.886719 C 199.449219 634.34375 199.367188 633.796875 199.3125 633.246094 C 199.257812 632.695312 199.230469 632.144531 199.230469 631.589844 L 199.230469 428.910156 C 199.230469 428.355469 199.257812 427.804688 199.3125 427.253906 C 199.367188 426.703125 199.449219 426.15625 199.554688 425.613281 C 199.664062 425.070312 199.796875 424.535156 199.957031 424.003906 C 200.117188 423.476562 200.304688 422.957031 200.515625 422.445312 C 200.726562 421.933594 200.964844 421.433594 201.226562 420.945312 C 201.484375 420.457031 201.769531 419.984375 202.078125 419.523438 C 202.382812 419.066406 202.714844 418.621094 203.066406 418.191406 C 203.414062 417.765625 203.785156 417.355469 204.179688 416.964844 C 204.570312 416.574219 204.976562 416.203125 205.40625 415.851562 C 205.832031 415.5 206.277344 415.171875 206.738281 414.863281 C 207.195312 414.558594 207.671875 414.273438 208.160156 414.011719 C 208.648438 413.75 209.144531 413.515625 209.65625 413.304688 C 210.167969 413.09375 210.6875 412.90625 211.21875 412.746094 C 211.746094 412.585938 212.285156 412.449219 212.824219 412.34375 C 213.367188 412.234375 213.914062 412.152344 214.464844 412.097656 C 215.015625 412.046875 215.566406 412.019531 216.121094 412.019531 Z M 216.121094 412.019531 " fill-opacity="1" fill-rule="nonzero"/></g><g clip-path="url(#782248ac15)"><path fill="#ffffff" d="M 334.351562 310.675781 L 401.914062 310.675781 C 402.464844 310.675781 403.015625 310.703125 403.566406 310.757812 C 404.117188 310.8125 404.664062 310.894531 405.207031 311 C 405.75 311.109375 406.285156 311.242188 406.816406 311.40625 C 407.34375 311.566406 407.863281 311.75 408.375 311.964844 C 408.886719 312.175781 409.386719 312.410156 409.875 312.671875 C 410.363281 312.933594 410.835938 313.214844 411.296875 313.523438 C 411.757812 313.832031 412.199219 314.160156 412.628906 314.511719 C 413.054688 314.863281 413.464844 315.234375 413.855469 315.625 C 414.246094 316.015625 414.617188 316.425781 414.96875 316.851562 C 415.320312 317.28125 415.648438 317.722656 415.957031 318.183594 C 416.261719 318.644531 416.546875 319.117188 416.808594 319.605469 C 417.070312 320.09375 417.304688 320.59375 417.515625 321.105469 C 417.726562 321.613281 417.914062 322.136719 418.074219 322.664062 C 418.234375 323.195312 418.371094 323.730469 418.476562 324.273438 C 418.585938 324.816406 418.667969 325.363281 418.722656 325.910156 C 418.773438 326.460938 418.800781 327.015625 418.800781 327.566406 L 418.800781 631.589844 C 418.800781 632.144531 418.773438 632.695312 418.722656 633.246094 C 418.667969 633.796875 418.585938 634.34375 418.476562 634.886719 C 418.371094 635.425781 418.234375 635.964844 418.074219 636.492188 C 417.914062 637.023438 417.726562 637.542969 417.515625 638.054688 C 417.304688 638.5625 417.070312 639.0625 416.808594 639.550781 C 416.546875 640.039062 416.261719 640.511719 415.957031 640.972656 C 415.648438 641.433594 415.320312 641.878906 414.96875 642.304688 C 414.617188 642.730469 414.246094 643.140625 413.855469 643.53125 C 413.464844 643.925781 413.054688 644.296875 412.628906 644.644531 C 412.199219 644.996094 411.757812 645.324219 411.296875 645.632812 C 410.835938 645.941406 410.363281 646.226562 409.875 646.484375 C 409.386719 646.746094 408.886719 646.980469 408.375 647.195312 C 407.863281 647.40625 407.34375 647.59375 406.816406 647.753906 C 406.285156 647.914062 405.75 648.046875 405.207031 648.15625 C 404.664062 648.261719 404.117188 648.34375 403.566406 648.398438 C 403.015625 648.453125 402.464844 648.480469 401.914062 648.480469 L 334.351562 648.480469 C 333.796875 648.480469 333.246094 648.453125 332.695312 648.398438 C 332.144531 648.34375 331.597656 648.261719 331.058594 648.15625 C 330.515625 648.046875 329.976562 647.914062 329.449219 647.753906 C 328.917969 647.59375 328.398438 647.40625 327.886719 647.195312 C 327.378906 646.980469 326.878906 646.746094 326.390625 646.484375 C 325.902344 646.226562 325.429688 645.941406 324.96875 645.632812 C 324.507812 645.324219 324.0625 644.996094 323.636719 644.644531 C 323.210938 644.296875 322.800781 643.925781 322.410156 643.53125 C 322.015625 643.140625 321.648438 642.730469 321.296875 642.304688 C 320.945312 641.878906 320.617188 641.433594 320.308594 640.972656 C 320 640.511719 319.71875 640.039062 319.457031 639.550781 C 319.195312 639.0625 318.960938 638.5625 318.746094 638.054688 C 318.535156 637.542969 318.347656 637.023438 318.1875 636.492188 C 318.027344 635.964844 317.894531 635.425781 317.785156 634.886719 C 317.679688 634.34375 317.597656 633.796875 317.542969 633.246094 C 317.488281 632.695312 317.460938 632.144531 317.460938 631.589844 L 317.460938 327.566406 C 317.460938 327.015625 317.488281 326.460938 317.542969 325.910156 C 317.597656 325.363281 317.679688 324.816406 317.785156 324.273438 C 317.894531 323.730469 318.027344 323.195312 318.1875 322.664062 C 318.347656 322.136719 318.535156 321.613281 318.746094 321.105469 C 318.960938 320.59375 319.195312 320.09375 319.457031 319.605469 C 319.71875 319.117188 320 318.644531 320.308594 318.183594 C 320.617188 317.722656 320.945312 317.28125 321.296875 316.851562 C 321.648438 316.425781 322.015625 316.015625 322.410156 315.625 C 322.800781 315.234375 323.210938 314.863281 323.636719 314.511719 C 324.0625 314.160156 324.507812 313.832031 324.96875 313.523438 C 325.429688 313.214844 325.902344 312.933594 326.390625 312.671875 C 326.878906 312.410156 327.378906 312.175781 327.886719 311.964844 C 328.398438 311.75 328.917969 311.566406 329.449219 311.40625 C 329.976562 311.242188 330.515625 311.109375 331.058594 311 C 331.597656 310.894531 332.144531 310.8125 332.695312 310.757812 C 333.246094 310.703125 333.796875 310.675781 334.351562 310.675781 Z M 334.351562 310.675781 " fill-opacity="1" fill-rule="nonzero"/></g></svg>